<svg width="106" height="10" viewBox="0 0 106 10" fill="none" xmlns="http://www.w3.org/2000/svg">
<path d="M7.596 9L5.532 6.072C6.72 5.7 7.524 4.74 7.524 3.492C7.524 1.884 6.204 0.756 4.44 0.756H0.852V9H2.352V6.228H3.948L5.892 9H7.596ZM2.352 2.136H4.272C5.292 2.136 6 2.652 6 3.492C6 4.332 5.292 4.848 4.272 4.848H2.352V2.136ZM11.7233 7.848C10.8353 7.848 10.1873 7.248 10.0073 6.396H14.6873C14.6873 4.104 13.5713 2.652 11.6513 2.652C9.88734 2.652 8.49534 4.02 8.49534 5.88C8.49534 7.788 9.95934 9.144 11.7353 9.144C12.6353 9.144 13.7153 8.76 14.2553 8.184L13.3313 7.224C12.9833 7.584 12.2993 7.848 11.7233 7.848ZM11.7113 3.948C12.5873 3.948 13.1153 4.5 13.2833 5.28H10.0193C10.2353 4.464 10.8953 3.948 11.7113 3.948ZM17.8283 2.28C17.8283 1.86 18.0923 1.56 18.4403 1.56C18.6923 1.56 18.9203 1.656 19.0523 1.788L19.4723 0.852C19.1243 0.551999 18.6203 0.36 18.1523 0.36C17.1203 0.36 16.4003 1.104 16.4003 2.148V2.796H15.5003V4.008H16.4003V9H17.8283V4.008H19.2323V2.796H17.8283V2.28ZM23.2898 7.848C22.4018 7.848 21.7538 7.248 21.5738 6.396H26.2538C26.2538 4.104 25.1378 2.652 23.2178 2.652C21.4538 2.652 20.0618 4.02 20.0618 5.88C20.0618 7.788 21.5258 9.144 23.3018 9.144C24.2018 9.144 25.2818 8.76 25.8218 8.184L24.8978 7.224C24.5498 7.584 23.8658 7.848 23.2898 7.848ZM23.2778 3.948C24.1538 3.948 24.6818 4.5 24.8498 5.28H21.5858C21.8018 4.464 22.4618 3.948 23.2778 3.948ZM29.0228 3.996V2.796H27.5588V9H29.0228V5.868C29.0228 4.692 29.9108 3.9 31.2428 3.9V2.652C30.2228 2.652 29.4188 3.168 29.0228 3.996ZM42.6499 8.592C42.1579 8.076 41.7139 7.62 41.3299 7.212C41.7379 6.648 42.1099 5.988 42.4699 5.256L41.3539 4.728C41.1259 5.316 40.8379 5.868 40.5139 6.348C39.9259 5.724 39.4699 5.22 39.0499 4.728C40.2979 4.164 40.9579 3.648 40.9579 2.688C40.9579 1.548 40.0339 0.659999 38.7619 0.659999C37.4779 0.659999 36.5059 1.572 36.5059 2.7C36.5059 3.312 36.6739 3.78 37.1299 4.416C35.8699 4.992 35.3179 5.7 35.3179 6.768C35.3179 8.256 36.4699 9.144 38.0299 9.144C38.9899 9.144 39.7819 8.796 40.4659 8.184L41.4019 9.156L42.6499 8.592ZM38.7859 1.752C39.2899 1.752 39.6619 2.16 39.6619 2.7C39.6619 3.288 39.2899 3.564 38.3779 3.936C37.9939 3.468 37.8139 3.108 37.8139 2.7C37.8139 2.124 38.2339 1.752 38.7859 1.752ZM38.1739 7.98C37.4179 7.98 36.7699 7.5 36.7699 6.696C36.7699 6.108 37.1179 5.664 37.8019 5.292C38.2699 5.844 38.8459 6.492 39.6619 7.344C39.1939 7.74 38.7019 7.98 38.1739 7.98ZM53.4857 2.124V0.756H47.2817V9H53.4857V7.632H48.7817V5.484H53.0417V4.116H48.7817V2.124H53.4857ZM57.5743 2.652C56.7943 2.652 55.9783 2.868 55.1023 3.3L55.6063 4.32C56.1343 4.056 56.6983 3.852 57.2863 3.852C58.4143 3.852 58.8103 4.548 58.8103 5.268V5.436C58.2463 5.22 57.6343 5.1 57.0703 5.1C55.6783 5.1 54.5383 5.94 54.5383 7.164C54.5383 8.364 55.5343 9.144 56.8543 9.144C57.5743 9.144 58.3543 8.832 58.8103 8.256V9H60.2383V5.268C60.2383 3.696 59.2183 2.652 57.5743 2.652ZM57.1783 8.076C56.4823 8.076 55.9663 7.704 55.9663 7.116C55.9663 6.528 56.5543 6.12 57.2863 6.12C57.8383 6.12 58.3543 6.204 58.8103 6.36V7.056C58.6423 7.716 57.8863 8.076 57.1783 8.076ZM63.3235 3.996V2.796H61.8595V9H63.3235V5.868C63.3235 4.692 64.2115 3.9 65.5435 3.9V2.652C64.5235 2.652 63.7195 3.168 63.3235 3.996ZM70.0122 2.652C69.1962 2.652 68.4762 3.048 68.0922 3.624V2.796H66.6282V9H68.0922V5.076C68.1882 4.416 68.8242 3.9 69.5922 3.9C70.3602 3.9 70.9002 4.5 70.9002 5.34V9H72.3162V5.052C72.3162 3.648 71.3682 2.652 70.0122 2.652ZM82.541 2.5957L82.248 3.67969H76.7402L77.0391 2.5957H82.541ZM79.7988 9L76.9102 5.58984L76.9043 4.65234H78.2988C78.6387 4.65234 78.918 4.58984 79.1367 4.46484C79.3594 4.33594 79.5254 4.16211 79.6348 3.94336C79.748 3.72461 79.8047 3.47852 79.8047 3.20508C79.8047 2.91992 79.7539 2.66797 79.6523 2.44922C79.5508 2.22656 79.3887 2.05273 79.166 1.92773C78.9434 1.80273 78.6484 1.74023 78.2812 1.74023H76.7461L77.0801 0.46875H78.2812C78.9766 0.46875 79.5547 0.574219 80.0156 0.785156C80.4805 0.992187 80.8281 1.29492 81.0586 1.69336C81.293 2.08789 81.4102 2.56445 81.4102 3.12305C81.4102 3.61133 81.3281 4.04297 81.1641 4.41797C81.0039 4.78906 80.7441 5.0918 80.3848 5.32617C80.0254 5.56055 79.5527 5.7168 78.9668 5.79492L81.5859 8.91797V9H79.7988ZM82.5469 0.46875L82.248 1.55273H77.7188L78.0176 0.46875H82.5469ZM83.333 9H89.393V7.632H85.661L87.389 6.24C88.805 5.148 89.309 4.272 89.309 3.18C89.309 1.656 88.061 0.611999 86.429 0.611999C85.097 0.611999 84.101 1.2 83.321 2.22L84.293 3.12C84.893 2.4 85.517 1.956 86.381 1.956C87.125 1.956 87.785 2.436 87.785 3.216C87.785 3.888 87.413 4.512 86.369 5.352L83.333 7.776V9ZM93.6234 9.144C95.5074 9.144 96.7914 8.04 96.7914 6.336C96.7914 4.68 95.5314 3.744 94.0674 3.744C93.3594 3.744 92.8194 3.96 92.3994 4.248L92.4714 2.124H96.3474V0.756H91.0674L90.9474 5.136L91.9674 5.568C92.4354 5.208 92.9994 4.992 93.6474 4.992C94.6314 4.992 95.2914 5.556 95.2914 6.396C95.2914 7.2 94.6554 7.848 93.6474 7.848C92.8194 7.848 92.0634 7.428 91.4274 6.804L90.5394 7.872C91.2714 8.64 92.2794 9.144 93.6234 9.144ZM101.571 9.144C103.683 9.144 105.171 7.38 105.171 4.872C105.171 2.376 103.683 0.611999 101.571 0.611999C99.4474 0.611999 97.9474 2.376 97.9474 4.872C97.9474 7.38 99.4474 9.144 101.571 9.144ZM101.571 7.776C100.347 7.776 99.4834 6.576 99.4834 4.872C99.4834 3.168 100.347 1.98 101.571 1.98C102.783 1.98 103.647 3.168 103.647 4.872C103.647 6.576 102.783 7.776 101.571 7.776Z" fill="black"/>
</svg>
